%TF.GenerationSoftware,KiCad,Pcbnew,10.0.6*%
%TF.CreationDate,2026-09-25T21:24:42+05:30*%
%TF.ProjectId,Blare,426c6172-652e-46b6-9963-61645f706362,rev?*%
%TF.SameCoordinates,Original*%
%TF.FileFunction,Copper,L1,Top*%
%TF.FilePolarity,Positive*%
%FSLAX46Y46*%
G04 Gerber Fmt 4.6, Leading zero omitted, Abs format (unit mm)*
G04 Created by KiCad (PCBNEW 10.0.6) date 2026-09-25 21:24:42*
%MOMM*%
%LPD*%
G01*
G04 APERTURE LIST*
%TA.AperFunction,ComponentPad*%
%ADD10C,1.524000*%
%TD*%
%TA.AperFunction,ComponentPad*%
%ADD11C,2.200000*%
%TD*%
%TA.AperFunction,ComponentPad*%
%ADD12R,1.700000X1.700000*%
%TD*%
%TA.AperFunction,ComponentPad*%
%ADD13C,1.700000*%
%TD*%
%TA.AperFunction,ComponentPad*%
%ADD14R,2.000000X2.000000*%
%TD*%
%TA.AperFunction,ComponentPad*%
%ADD15C,2.000000*%
%TD*%
%TA.AperFunction,Conductor*%
%ADD16C,0.200000*%
%TD*%
G04 APERTURE END LIST*
D10*
%TO.P,U2,14,VBUS_14*%
%TO.N,unconnected-(U2-VBUS-Pad14)*%
X155630000Y-50880000D03*
%TO.P,U2,13,GND_13*%
%TO.N,GND*%
X155630000Y-53420000D03*
%TO.P,U2,12,3V3_OUT_12*%
%TO.N,+3.3V*%
X155630000Y-55960000D03*
%TO.P,U2,11,D10_11*%
%TO.N,/SDA*%
X155630000Y-58500000D03*
%TO.P,U2,10,D9/BOOT_10*%
%TO.N,/SCL*%
X155630000Y-61040000D03*
%TO.P,U2,9,D8_9*%
%TO.N,/RST*%
X155630000Y-63580000D03*
%TO.P,U2,8,D7_8*%
%TO.N,Net-(BZ1-+)*%
X155630000Y-66120000D03*
%TO.P,U2,7,D6_7*%
%TO.N,/BL*%
X170870000Y-66120000D03*
%TO.P,U2,6,D5_6*%
%TO.N,/CS*%
X170870000Y-63580000D03*
%TO.P,U2,5,D4_5*%
%TO.N,/DC*%
X170870000Y-61040000D03*
%TO.P,U2,4,D3_4*%
%TO.N,Net-(U2-D3)*%
X170870000Y-58500000D03*
%TO.P,U2,3,D2_3*%
%TO.N,Net-(U2-D2)*%
X170870000Y-55960000D03*
%TO.P,U2,2,D1_2*%
%TO.N,Net-(U2-D1)*%
X170870000Y-53420000D03*
%TO.P,U2,1,D0_1*%
%TO.N,Net-(U2-D0)*%
X170870000Y-50880000D03*
%TD*%
D11*
%TO.P,SW1,1,1_1*%
%TO.N,GND*%
X136710000Y-77670000D03*
%TO.P,SW1,2,2_2*%
%TO.N,Net-(U2-D0)*%
X130360000Y-80210000D03*
%TD*%
D12*
%TO.P,J1,1,Pin_1_1*%
%TO.N,GND*%
X146580000Y-67500000D03*
D13*
%TO.P,J1,2,Pin_2_2*%
%TO.N,+3.3V*%
X144040000Y-67500000D03*
%TO.P,J1,3,Pin_3_3*%
%TO.N,/SCL*%
X141500000Y-67500000D03*
%TO.P,J1,4,Pin_4_4*%
%TO.N,/SDA*%
X138960000Y-67500000D03*
%TO.P,J1,5,Pin_5_5*%
%TO.N,/RST*%
X136420000Y-67500000D03*
%TO.P,J1,6,Pin_6_6*%
%TO.N,/DC*%
X133880000Y-67500000D03*
%TO.P,J1,7,Pin_7_7*%
%TO.N,/CS*%
X131340000Y-67500000D03*
%TO.P,J1,8,Pin_8_8*%
%TO.N,/BL*%
X128800000Y-67500000D03*
%TD*%
D11*
%TO.P,SW3,1,1_1*%
%TO.N,GND*%
X174870000Y-77670000D03*
%TO.P,SW3,2,2_2*%
%TO.N,Net-(U2-D2)*%
X168520000Y-80210000D03*
%TD*%
D14*
%TO.P,BZ1,1,+_1*%
%TO.N,Net-(BZ1-+)*%
X181200000Y-64000000D03*
D15*
%TO.P,BZ1,2,-_2*%
%TO.N,GND*%
X188800000Y-64000000D03*
%TD*%
D11*
%TO.P,SW2,1,1_1*%
%TO.N,GND*%
X155710000Y-77670000D03*
%TO.P,SW2,2,2_2*%
%TO.N,Net-(U2-D1)*%
X149360000Y-80210000D03*
%TD*%
%TO.P,SW4,1,1_1*%
%TO.N,GND*%
X193870000Y-77670000D03*
%TO.P,SW4,2,2_2*%
%TO.N,Net-(U2-D3)*%
X187520000Y-80210000D03*
%TD*%
%TO.N,/RST*%
D16*
X152750000Y-64660000D02*
X153830000Y-63580000D01*
X153830000Y-63580000D02*
X155630000Y-63580000D01*
X152750000Y-66500000D02*
X152750000Y-64660000D01*
X154000000Y-67750000D02*
X152750000Y-66500000D01*
X154000000Y-73000000D02*
X154000000Y-67750000D01*
X141920000Y-73000000D02*
X154000000Y-73000000D01*
X136420000Y-67500000D02*
X141920000Y-73000000D01*
%TO.N,/SCL*%
X142540000Y-61040000D02*
X155630000Y-61040000D01*
X142250000Y-60750000D02*
X142540000Y-61040000D01*
X141500000Y-60750000D02*
X142250000Y-60750000D01*
X141500000Y-67500000D02*
X141500000Y-60750000D01*
%TO.N,/SDA*%
X138960000Y-60445686D02*
X140905686Y-58500000D01*
X138960000Y-67500000D02*
X138960000Y-60445686D01*
X140905686Y-58500000D02*
X155630000Y-58500000D01*
%TO.N,/DC*%
X170750000Y-61160000D02*
X170870000Y-61040000D01*
X172750000Y-62000000D02*
X170750000Y-62000000D01*
X173250000Y-62500000D02*
X172750000Y-62000000D01*
X164150000Y-80665686D02*
X173250000Y-71565686D01*
X173250000Y-71565686D02*
X173250000Y-62500000D01*
X163331372Y-94800000D02*
X164150000Y-93981371D01*
X148560000Y-93721372D02*
X149638630Y-94800000D01*
X148560000Y-85482742D02*
X148560000Y-93721372D01*
X136727258Y-73650000D02*
X148560000Y-85482742D01*
X128584315Y-73650000D02*
X136727258Y-73650000D01*
X164150000Y-93981371D02*
X164150000Y-80665686D01*
X127650000Y-72715685D02*
X128584315Y-73650000D01*
X127650000Y-67023654D02*
X127650000Y-72715685D01*
X129950000Y-67023654D02*
X129276346Y-66350000D01*
X130623654Y-68650000D02*
X129950000Y-67976346D01*
X132730000Y-68650000D02*
X130623654Y-68650000D01*
X170750000Y-62000000D02*
X170750000Y-61160000D01*
X129950000Y-67976346D02*
X129950000Y-67023654D01*
X129276346Y-66350000D02*
X128323654Y-66350000D01*
X133880000Y-67500000D02*
X132730000Y-68650000D01*
X149638630Y-94800000D02*
X163331372Y-94800000D01*
X128323654Y-66350000D02*
X127650000Y-67023654D01*
%TO.N,/CS*%
X169808000Y-62518000D02*
X170870000Y-63580000D01*
X169808000Y-55104105D02*
X169808000Y-62518000D01*
X170430105Y-54482000D02*
X169808000Y-55104105D01*
X171309895Y-54482000D02*
X170430105Y-54482000D01*
X171932000Y-53859895D02*
X171309895Y-54482000D01*
X171932000Y-52980105D02*
X171932000Y-53859895D01*
X171309895Y-52358000D02*
X171932000Y-52980105D01*
X146482000Y-52358000D02*
X171309895Y-52358000D01*
X131340000Y-67500000D02*
X146482000Y-52358000D01*
%TO.N,/BL*%
X170870000Y-72120000D02*
X170870000Y-66120000D01*
X171500000Y-72750000D02*
X170870000Y-72120000D01*
X163750000Y-93815686D02*
X163750000Y-72750000D01*
X163165686Y-94400000D02*
X163750000Y-93815686D01*
X149804315Y-94400000D02*
X163165686Y-94400000D01*
X148960000Y-93555686D02*
X149804315Y-94400000D01*
X148960000Y-85317056D02*
X148960000Y-93555686D01*
X136892944Y-73250000D02*
X148960000Y-85317056D01*
X128750000Y-73250000D02*
X136892944Y-73250000D01*
X128800000Y-73200000D02*
X128750000Y-73250000D01*
X163750000Y-72750000D02*
X171500000Y-72750000D01*
X128800000Y-67500000D02*
X128800000Y-73200000D01*
%TO.N,Net-(U2-D0)*%
X167990000Y-48000000D02*
X170870000Y-50880000D01*
X126750000Y-48000000D02*
X167990000Y-48000000D01*
X126750000Y-76600000D02*
X126750000Y-48000000D01*
X130360000Y-80210000D02*
X126750000Y-76600000D01*
%TO.N,Net-(U2-D1)*%
X163750000Y-53750000D02*
X164080000Y-53420000D01*
X163250000Y-93750000D02*
X163250000Y-53750000D01*
X163000000Y-94000000D02*
X163250000Y-93750000D01*
X164080000Y-53420000D02*
X170870000Y-53420000D01*
X149970000Y-94000000D02*
X163000000Y-94000000D01*
X149360000Y-93390000D02*
X149970000Y-94000000D01*
X163250000Y-53750000D02*
X163750000Y-53750000D01*
X149360000Y-80210000D02*
X149360000Y-93390000D01*
%TO.N,Net-(U2-D2)*%
X200960000Y-55960000D02*
X170870000Y-55960000D01*
X201500000Y-56500000D02*
X200960000Y-55960000D01*
X202150000Y-56500000D02*
X201500000Y-56500000D01*
X202150000Y-92100000D02*
X202150000Y-56500000D01*
X202000000Y-92750000D02*
X202000000Y-92250000D01*
X202000000Y-92250000D02*
X202150000Y-92100000D01*
X185712944Y-92750000D02*
X202000000Y-92750000D01*
X173172944Y-80210000D02*
X185712944Y-92750000D01*
X168520000Y-80210000D02*
X173172944Y-80210000D01*
%TO.N,Net-(U2-D3)*%
X187520000Y-75150000D02*
X170870000Y-58500000D01*
X187520000Y-80210000D02*
X187520000Y-75150000D01*
%TD*%
M02*
