%TF.GenerationSoftware,KiCad,Pcbnew,10.0.6*%
%TF.CreationDate,2026-09-25T21:24:42+05:30*%
%TF.ProjectId,Blare,426c6172-652e-46b6-9963-61645f706362,rev?*%
%TF.SameCoordinates,Original*%
%TF.FileFunction,Copper,L2,Bot*%
%TF.FilePolarity,Positive*%
%FSLAX46Y46*%
G04 Gerber Fmt 4.6, Leading zero omitted, Abs format (unit mm)*
G04 Created by KiCad (PCBNEW 10.0.6) date 2026-09-25 21:24:42*
%MOMM*%
%LPD*%
G01*
G04 APERTURE LIST*
G04 Aperture macros list*
%AMRoundRect*
0 Rectangle with rounded corners*
0 $1 Rounding radius*
0 $2 $3 $4 $5 $6 $7 $8 $9 X,Y pos of 4 corners*
0 Add a 4 corners polygon primitive as box body*
4,1,4,$2,$3,$4,$5,$6,$7,$8,$9,$2,$3,0*
0 Add four circle primitives for the rounded corners*
1,1,$1+$1,$2,$3*
1,1,$1+$1,$4,$5*
1,1,$1+$1,$6,$7*
1,1,$1+$1,$8,$9*
0 Add four rect primitives between the rounded corners*
20,1,$1+$1,$2,$3,$4,$5,0*
20,1,$1+$1,$4,$5,$6,$7,0*
20,1,$1+$1,$6,$7,$8,$9,0*
20,1,$1+$1,$8,$9,$2,$3,0*%
G04 Aperture macros list end*
%TA.AperFunction,SMDPad,CuDef*%
%ADD10RoundRect,0.275000X-0.975000X-0.275000X0.975000X-0.275000X0.975000X0.275000X-0.975000X0.275000X0*%
%TD*%
%TA.AperFunction,SMDPad,CuDef*%
%ADD11C,1.700000*%
%TD*%
%TA.AperFunction,SMDPad,CuDef*%
%ADD12RoundRect,0.152400X1.063600X0.609600X-1.063600X0.609600X-1.063600X-0.609600X1.063600X-0.609600X0*%
%TD*%
%TA.AperFunction,ComponentPad*%
%ADD13C,1.524000*%
%TD*%
%TA.AperFunction,SMDPad,CuDef*%
%ADD14RoundRect,0.152400X-1.063600X-0.609600X1.063600X-0.609600X1.063600X0.609600X-1.063600X0.609600X0*%
%TD*%
%TA.AperFunction,ComponentPad*%
%ADD15C,2.200000*%
%TD*%
%TA.AperFunction,ComponentPad*%
%ADD16R,1.700000X1.700000*%
%TD*%
%TA.AperFunction,ComponentPad*%
%ADD17C,1.700000*%
%TD*%
%TA.AperFunction,ComponentPad*%
%ADD18R,2.000000X2.000000*%
%TD*%
%TA.AperFunction,ComponentPad*%
%ADD19C,2.000000*%
%TD*%
%TA.AperFunction,Conductor*%
%ADD20C,0.200000*%
%TD*%
G04 APERTURE END LIST*
D10*
%TO.P,U2,22,GND_22*%
%TO.N,GND*%
X167695000Y-56209000D03*
%TO.P,U2,21,VBAT_21*%
%TO.N,unconnected-(U2-VBAT-Pad21)*%
X167695000Y-58114000D03*
D11*
%TO.P,U2,20,D4/MTCK_20*%
%TO.N,unconnected-(U2-D4{slash}MTCK-Pad20)*%
X161980000Y-54944000D03*
%TO.P,U2,19,D2/MTMS_19*%
%TO.N,unconnected-(U2-D2{slash}MTMS-Pad19)*%
X164520000Y-54944000D03*
%TO.P,U2,18,GND_18*%
%TO.N,GND*%
X161980000Y-52404000D03*
%TO.P,U2,17,EN_17*%
%TO.N,unconnected-(U2-EN-Pad17)*%
X164520000Y-52404000D03*
%TO.P,U2,16,D5/MTDO_16*%
%TO.N,unconnected-(U2-D5{slash}MTDO-Pad16)*%
X161980000Y-49864000D03*
%TO.P,U2,15,D3/MTDI_15*%
%TO.N,unconnected-(U2-D3{slash}MTDI-Pad15)*%
X164520000Y-49864000D03*
D12*
%TO.P,U2,14,VBUS_14*%
%TO.N,unconnected-(U2-VBUS-Pad14)_1*%
X154795000Y-50880000D03*
D13*
%TO.N,unconnected-(U2-VBUS-Pad14)*%
X155630000Y-50880000D03*
D12*
%TO.P,U2,13,GND_13*%
%TO.N,GND*%
X154795000Y-53420000D03*
D13*
X155630000Y-53420000D03*
D12*
%TO.P,U2,12,3V3_OUT_12*%
%TO.N,+3.3V*%
X154795000Y-55960000D03*
D13*
X155630000Y-55960000D03*
D12*
%TO.P,U2,11,D10_11*%
%TO.N,/SDA*%
X154795000Y-58500000D03*
D13*
X155630000Y-58500000D03*
D12*
%TO.P,U2,10,D9/BOOT_10*%
%TO.N,/SCL*%
X154795000Y-61040000D03*
D13*
X155630000Y-61040000D03*
D12*
%TO.P,U2,9,D8_9*%
%TO.N,/RST*%
X154795000Y-63580000D03*
D13*
X155630000Y-63580000D03*
D12*
%TO.P,U2,8,D7_8*%
%TO.N,Net-(BZ1-+)*%
X154795000Y-66120000D03*
D13*
X155630000Y-66120000D03*
%TO.P,U2,7,D6_7*%
%TO.N,/BL*%
X170870000Y-66120000D03*
D14*
X171705000Y-66120000D03*
D13*
%TO.P,U2,6,D5_6*%
%TO.N,/CS*%
X170870000Y-63580000D03*
D14*
X171705000Y-63580000D03*
D13*
%TO.P,U2,5,D4_5*%
%TO.N,/DC*%
X170870000Y-61040000D03*
D14*
X171705000Y-61040000D03*
D13*
%TO.P,U2,4,D3_4*%
%TO.N,Net-(U2-D3)*%
X170870000Y-58500000D03*
D14*
X171705000Y-58500000D03*
D13*
%TO.P,U2,3,D2_3*%
%TO.N,Net-(U2-D2)*%
X170870000Y-55960000D03*
D14*
X171705000Y-55960000D03*
D13*
%TO.P,U2,2,D1_2*%
%TO.N,Net-(U2-D1)*%
X170870000Y-53420000D03*
D14*
X171705000Y-53420000D03*
D13*
%TO.P,U2,1,D0_1*%
%TO.N,Net-(U2-D0)*%
X170870000Y-50880000D03*
D14*
X171705000Y-50880000D03*
%TD*%
D15*
%TO.P,SW1,1,1_1*%
%TO.N,GND*%
X136710000Y-77670000D03*
%TO.P,SW1,2,2_2*%
%TO.N,Net-(U2-D0)*%
X130360000Y-80210000D03*
%TD*%
D16*
%TO.P,J1,1,Pin_1_1*%
%TO.N,GND*%
X146580000Y-67500000D03*
D17*
%TO.P,J1,2,Pin_2_2*%
%TO.N,+3.3V*%
X144040000Y-67500000D03*
%TO.P,J1,3,Pin_3_3*%
%TO.N,/SCL*%
X141500000Y-67500000D03*
%TO.P,J1,4,Pin_4_4*%
%TO.N,/SDA*%
X138960000Y-67500000D03*
%TO.P,J1,5,Pin_5_5*%
%TO.N,/RST*%
X136420000Y-67500000D03*
%TO.P,J1,6,Pin_6_6*%
%TO.N,/DC*%
X133880000Y-67500000D03*
%TO.P,J1,7,Pin_7_7*%
%TO.N,/CS*%
X131340000Y-67500000D03*
%TO.P,J1,8,Pin_8_8*%
%TO.N,/BL*%
X128800000Y-67500000D03*
%TD*%
D15*
%TO.P,SW3,1,1_1*%
%TO.N,GND*%
X174870000Y-77670000D03*
%TO.P,SW3,2,2_2*%
%TO.N,Net-(U2-D2)*%
X168520000Y-80210000D03*
%TD*%
D18*
%TO.P,BZ1,1,+_1*%
%TO.N,Net-(BZ1-+)*%
X181200000Y-64000000D03*
D19*
%TO.P,BZ1,2,-_2*%
%TO.N,GND*%
X188800000Y-64000000D03*
%TD*%
D15*
%TO.P,SW2,1,1_1*%
%TO.N,GND*%
X155710000Y-77670000D03*
%TO.P,SW2,2,2_2*%
%TO.N,Net-(U2-D1)*%
X149360000Y-80210000D03*
%TD*%
%TO.P,SW4,1,1_1*%
%TO.N,GND*%
X193870000Y-77670000D03*
%TO.P,SW4,2,2_2*%
%TO.N,Net-(U2-D3)*%
X187520000Y-80210000D03*
%TD*%
%TO.N,GND*%
D20*
X163130000Y-53554000D02*
X165040000Y-53554000D01*
X161980000Y-52404000D02*
X163130000Y-53554000D01*
X165040000Y-53554000D02*
X167695000Y-56209000D01*
X157362000Y-57022000D02*
X161980000Y-52404000D01*
X153279000Y-54693370D02*
X153279000Y-56761214D01*
X153279000Y-56761214D02*
X153539786Y-57022000D01*
X155630000Y-53420000D02*
X154552370Y-53420000D01*
X154552370Y-53420000D02*
X153279000Y-54693370D01*
X153539786Y-57022000D02*
X157362000Y-57022000D01*
%TO.N,Net-(BZ1-+)*%
X157108000Y-64642000D02*
X155630000Y-66120000D01*
X180558000Y-64642000D02*
X157108000Y-64642000D01*
X181200000Y-64000000D02*
X180558000Y-64642000D01*
%TO.N,+3.3V*%
X156692000Y-52980105D02*
X156692000Y-54898000D01*
X156692000Y-54898000D02*
X155630000Y-55960000D01*
X156069895Y-52358000D02*
X156692000Y-52980105D01*
X146826314Y-52358000D02*
X156069895Y-52358000D01*
X144040000Y-55144314D02*
X146826314Y-52358000D01*
X144040000Y-67500000D02*
X144040000Y-55144314D01*
%TO.N,GND*%
X147170000Y-53420000D02*
X154795000Y-53420000D01*
X146750000Y-53000000D02*
X147170000Y-53420000D01*
X146580000Y-67580000D02*
X146750000Y-67750000D01*
X146750000Y-67750000D02*
X146750000Y-53000000D01*
X146580000Y-67500000D02*
X146580000Y-67580000D01*
X146580000Y-68540000D02*
X146580000Y-67500000D01*
X155710000Y-77670000D02*
X146580000Y-68540000D01*
X192250000Y-73000000D02*
X193870000Y-74620000D01*
X193870000Y-74620000D02*
X193870000Y-77670000D01*
X190000000Y-73000000D02*
X192250000Y-73000000D01*
X190000000Y-65200000D02*
X190000000Y-73000000D01*
X188800000Y-64000000D02*
X190000000Y-65200000D01*
X136710000Y-77670000D02*
X193870000Y-77670000D01*
%TD*%
M02*
