%TF.GenerationSoftware,KiCad,Pcbnew,10.0.6*%
%TF.CreationDate,2026-09-25T21:24:42+05:30*%
%TF.ProjectId,Blare,426c6172-652e-46b6-9963-61645f706362,rev?*%
%TF.SameCoordinates,Original*%
%TF.FileFunction,Soldermask,Bot*%
%TF.FilePolarity,Negative*%
%FSLAX46Y46*%
G04 Gerber Fmt 4.6, Leading zero omitted, Abs format (unit mm)*
G04 Created by KiCad (PCBNEW 10.0.6) date 2026-09-25 21:24:42*
%MOMM*%
%LPD*%
G01*
G04 APERTURE LIST*
G04 Aperture macros list*
%AMRoundRect*
0 Rectangle with rounded corners*
0 $1 Rounding radius*
0 $2 $3 $4 $5 $6 $7 $8 $9 X,Y pos of 4 corners*
0 Add a 4 corners polygon primitive as box body*
4,1,4,$2,$3,$4,$5,$6,$7,$8,$9,$2,$3,0*
0 Add four circle primitives for the rounded corners*
1,1,$1+$1,$2,$3*
1,1,$1+$1,$4,$5*
1,1,$1+$1,$6,$7*
1,1,$1+$1,$8,$9*
0 Add four rect primitives between the rounded corners*
20,1,$1+$1,$2,$3,$4,$5,0*
20,1,$1+$1,$4,$5,$6,$7,0*
20,1,$1+$1,$6,$7,$8,$9,0*
20,1,$1+$1,$8,$9,$2,$3,0*%
G04 Aperture macros list end*
%ADD10RoundRect,0.275000X-0.975000X-0.275000X0.975000X-0.275000X0.975000X0.275000X-0.975000X0.275000X0*%
%ADD11C,1.700000*%
%ADD12RoundRect,0.152400X1.063600X0.609600X-1.063600X0.609600X-1.063600X-0.609600X1.063600X-0.609600X0*%
%ADD13C,1.524000*%
%ADD14RoundRect,0.152400X-1.063600X-0.609600X1.063600X-0.609600X1.063600X0.609600X-1.063600X0.609600X0*%
%ADD15C,3.200000*%
%ADD16C,4.000000*%
%ADD17C,2.200000*%
%ADD18R,1.700000X1.700000*%
%ADD19R,2.000000X2.000000*%
%ADD20C,2.000000*%
G04 APERTURE END LIST*
D10*
%TO.C,U2*%
X167695000Y-56209000D03*
X167695000Y-58114000D03*
D11*
X161980000Y-54944000D03*
X164520000Y-54944000D03*
X161980000Y-52404000D03*
X164520000Y-52404000D03*
X161980000Y-49864000D03*
X164520000Y-49864000D03*
D12*
X154795000Y-50880000D03*
D13*
X155630000Y-50880000D03*
D12*
X154795000Y-53420000D03*
D13*
X155630000Y-53420000D03*
D12*
X154795000Y-55960000D03*
D13*
X155630000Y-55960000D03*
D12*
X154795000Y-58500000D03*
D13*
X155630000Y-58500000D03*
D12*
X154795000Y-61040000D03*
D13*
X155630000Y-61040000D03*
D12*
X154795000Y-63580000D03*
D13*
X155630000Y-63580000D03*
D12*
X154795000Y-66120000D03*
D13*
X155630000Y-66120000D03*
X170870000Y-66120000D03*
D14*
X171705000Y-66120000D03*
D13*
X170870000Y-63580000D03*
D14*
X171705000Y-63580000D03*
D13*
X170870000Y-61040000D03*
D14*
X171705000Y-61040000D03*
D13*
X170870000Y-58500000D03*
D14*
X171705000Y-58500000D03*
D13*
X170870000Y-55960000D03*
D14*
X171705000Y-55960000D03*
D13*
X170870000Y-53420000D03*
D14*
X171705000Y-53420000D03*
D13*
X170870000Y-50880000D03*
D14*
X171705000Y-50880000D03*
%TD*%
D15*
%TO.C,H2*%
X120000000Y-46000000D03*
%TD*%
D11*
%TO.C,SW1*%
X129090000Y-82750000D03*
D16*
X134170000Y-82750000D03*
D11*
X139250000Y-82750000D03*
D17*
X136710000Y-77670000D03*
X130360000Y-80210000D03*
%TD*%
D18*
%TO.C,J1*%
X146580000Y-67500000D03*
D11*
X144040000Y-67500000D03*
X141500000Y-67500000D03*
X138960000Y-67500000D03*
X136420000Y-67500000D03*
X133880000Y-67500000D03*
X131340000Y-67500000D03*
X128800000Y-67500000D03*
%TD*%
%TO.C,SW3*%
X167250000Y-82750000D03*
D16*
X172330000Y-82750000D03*
D11*
X177410000Y-82750000D03*
D17*
X174870000Y-77670000D03*
X168520000Y-80210000D03*
%TD*%
D15*
%TO.C,H4*%
X199000000Y-97250000D03*
%TD*%
%TO.C,H1*%
X199000000Y-46000000D03*
%TD*%
D19*
%TO.C,BZ1*%
X181200000Y-64000000D03*
D20*
X188800000Y-64000000D03*
%TD*%
D11*
%TO.C,SW2*%
X148090000Y-82750000D03*
D16*
X153170000Y-82750000D03*
D11*
X158250000Y-82750000D03*
D17*
X155710000Y-77670000D03*
X149360000Y-80210000D03*
%TD*%
D15*
%TO.C,H3*%
X120250000Y-96750000D03*
%TD*%
D11*
%TO.C,SW4*%
X186250000Y-82750000D03*
D16*
X191330000Y-82750000D03*
D11*
X196410000Y-82750000D03*
D17*
X193870000Y-77670000D03*
X187520000Y-80210000D03*
%TD*%
M02*
