%TF.GenerationSoftware,KiCad,Pcbnew,10.0.6*%
%TF.CreationDate,2026-09-25T21:24:42+05:30*%
%TF.ProjectId,Blare,426c6172-652e-46b6-9963-61645f706362,rev?*%
%TF.SameCoordinates,Original*%
%TF.FileFunction,Soldermask,Top*%
%TF.FilePolarity,Negative*%
%FSLAX46Y46*%
G04 Gerber Fmt 4.6, Leading zero omitted, Abs format (unit mm)*
G04 Created by KiCad (PCBNEW 10.0.6) date 2026-09-25 21:24:42*
%MOMM*%
%LPD*%
G01*
G04 APERTURE LIST*
%ADD10C,1.524000*%
%ADD11C,3.200000*%
%ADD12C,1.700000*%
%ADD13C,4.000000*%
%ADD14C,2.200000*%
%ADD15R,1.700000X1.700000*%
%ADD16R,2.000000X2.000000*%
%ADD17C,2.000000*%
G04 APERTURE END LIST*
D10*
%TO.C,U2*%
X155630000Y-50880000D03*
X155630000Y-53420000D03*
X155630000Y-55960000D03*
X155630000Y-58500000D03*
X155630000Y-61040000D03*
X155630000Y-63580000D03*
X155630000Y-66120000D03*
X170870000Y-66120000D03*
X170870000Y-63580000D03*
X170870000Y-61040000D03*
X170870000Y-58500000D03*
X170870000Y-55960000D03*
X170870000Y-53420000D03*
X170870000Y-50880000D03*
%TD*%
D11*
%TO.C,H2*%
X120000000Y-46000000D03*
%TD*%
D12*
%TO.C,SW1*%
X129090000Y-82750000D03*
D13*
X134170000Y-82750000D03*
D12*
X139250000Y-82750000D03*
D14*
X136710000Y-77670000D03*
X130360000Y-80210000D03*
%TD*%
D15*
%TO.C,J1*%
X146580000Y-67500000D03*
D12*
X144040000Y-67500000D03*
X141500000Y-67500000D03*
X138960000Y-67500000D03*
X136420000Y-67500000D03*
X133880000Y-67500000D03*
X131340000Y-67500000D03*
X128800000Y-67500000D03*
%TD*%
%TO.C,SW3*%
X167250000Y-82750000D03*
D13*
X172330000Y-82750000D03*
D12*
X177410000Y-82750000D03*
D14*
X174870000Y-77670000D03*
X168520000Y-80210000D03*
%TD*%
D11*
%TO.C,H4*%
X199000000Y-97250000D03*
%TD*%
%TO.C,H1*%
X199000000Y-46000000D03*
%TD*%
D16*
%TO.C,BZ1*%
X181200000Y-64000000D03*
D17*
X188800000Y-64000000D03*
%TD*%
D12*
%TO.C,SW2*%
X148090000Y-82750000D03*
D13*
X153170000Y-82750000D03*
D12*
X158250000Y-82750000D03*
D14*
X155710000Y-77670000D03*
X149360000Y-80210000D03*
%TD*%
D11*
%TO.C,H3*%
X120250000Y-96750000D03*
%TD*%
D12*
%TO.C,SW4*%
X186250000Y-82750000D03*
D13*
X191330000Y-82750000D03*
D12*
X196410000Y-82750000D03*
D14*
X193870000Y-77670000D03*
X187520000Y-80210000D03*
%TD*%
M02*
