ISO-10303-21;
HEADER;
/* Generated by software containing ST-Developer
 * from STEP Tools, Inc. (www.steptools.com) 
 */
/* OPTION: using custom renumber hook */

FILE_DESCRIPTION(
/* description */ ('STEP AP242 Edition 2',
'CAx-IF Rec.Pracs.---Representation and Presentation of Product Manufa
cturing Information (PMI)---4.0---2014-10-13',
'CAx-IF Rec.Pracs.---3D Tessellated Geometry---0.4---2014-09-14','2;1',
'CAx-IF Rec.Pracs.---User Defined Attributes---1.5---2016-08-15'),
/* implementation_level */ '2;1');

FILE_NAME(
/* name */ 'Part Studio 1 - Part 2',
/* time_stamp */ '2026-09-26T13:51:52Z',
/* author */ (''),
/* organization */ (''),
/* preprocessor_version */ 'ST-DEVELOPER v20',
/* originating_system */ 'ONSHAPE BY PTC INC, 1.221',
/* authorisation */ '  ');

FILE_SCHEMA (('AP242_MANAGED_MODEL_BASED_3D_ENGINEERING_MIM_LF { 1 0 10303 442 3 1 4 }'));
ENDSEC;

DATA;
#10=SHAPE_REPRESENTATION_RELATIONSHIP('','',#491,#11);
#11=ADVANCED_BREP_SHAPE_REPRESENTATION('',(#489),#765);
#12=ORIENTED_EDGE('',*,*,#144,.F.);
#13=ORIENTED_EDGE('',*,*,#145,.T.);
#14=ORIENTED_EDGE('',*,*,#146,.T.);
#15=ORIENTED_EDGE('',*,*,#147,.F.);
#16=ORIENTED_EDGE('',*,*,#148,.F.);
#17=ORIENTED_EDGE('',*,*,#149,.T.);
#18=ORIENTED_EDGE('',*,*,#150,.F.);
#19=ORIENTED_EDGE('',*,*,#151,.T.);
#20=ORIENTED_EDGE('',*,*,#152,.T.);
#21=ORIENTED_EDGE('',*,*,#153,.F.);
#22=ORIENTED_EDGE('',*,*,#154,.T.);
#23=ORIENTED_EDGE('',*,*,#155,.T.);
#24=ORIENTED_EDGE('',*,*,#156,.F.);
#25=ORIENTED_EDGE('',*,*,#157,.F.);
#26=ORIENTED_EDGE('',*,*,#158,.T.);
#27=ORIENTED_EDGE('',*,*,#159,.T.);
#28=ORIENTED_EDGE('',*,*,#160,.T.);
#29=ORIENTED_EDGE('',*,*,#161,.T.);
#30=ORIENTED_EDGE('',*,*,#162,.F.);
#31=ORIENTED_EDGE('',*,*,#163,.F.);
#32=ORIENTED_EDGE('',*,*,#164,.F.);
#33=ORIENTED_EDGE('',*,*,#165,.F.);
#34=ORIENTED_EDGE('',*,*,#166,.T.);
#35=ORIENTED_EDGE('',*,*,#167,.T.);
#36=ORIENTED_EDGE('',*,*,#168,.F.);
#37=ORIENTED_EDGE('',*,*,#167,.F.);
#38=ORIENTED_EDGE('',*,*,#169,.T.);
#39=ORIENTED_EDGE('',*,*,#170,.T.);
#40=ORIENTED_EDGE('',*,*,#171,.T.);
#41=ORIENTED_EDGE('',*,*,#170,.F.);
#42=ORIENTED_EDGE('',*,*,#172,.F.);
#43=ORIENTED_EDGE('',*,*,#173,.T.);
#44=ORIENTED_EDGE('',*,*,#174,.T.);
#45=ORIENTED_EDGE('',*,*,#175,.T.);
#46=ORIENTED_EDGE('',*,*,#176,.F.);
#47=ORIENTED_EDGE('',*,*,#177,.F.);
#48=ORIENTED_EDGE('',*,*,#178,.F.);
#49=ORIENTED_EDGE('',*,*,#177,.T.);
#50=ORIENTED_EDGE('',*,*,#179,.T.);
#51=ORIENTED_EDGE('',*,*,#180,.F.);
#52=ORIENTED_EDGE('',*,*,#181,.T.);
#53=ORIENTED_EDGE('',*,*,#182,.T.);
#54=ORIENTED_EDGE('',*,*,#165,.T.);
#55=ORIENTED_EDGE('',*,*,#183,.T.);
#56=ORIENTED_EDGE('',*,*,#173,.F.);
#57=ORIENTED_EDGE('',*,*,#184,.T.);
#58=ORIENTED_EDGE('',*,*,#185,.F.);
#59=ORIENTED_EDGE('',*,*,#186,.F.);
#60=ORIENTED_EDGE('',*,*,#187,.T.);
#61=ORIENTED_EDGE('',*,*,#188,.T.);
#62=ORIENTED_EDGE('',*,*,#189,.F.);
#63=ORIENTED_EDGE('',*,*,#190,.F.);
#64=ORIENTED_EDGE('',*,*,#191,.T.);
#65=ORIENTED_EDGE('',*,*,#192,.T.);
#66=ORIENTED_EDGE('',*,*,#193,.F.);
#67=ORIENTED_EDGE('',*,*,#175,.F.);
#68=ORIENTED_EDGE('',*,*,#194,.F.);
#69=ORIENTED_EDGE('',*,*,#147,.T.);
#70=ORIENTED_EDGE('',*,*,#195,.T.);
#71=ORIENTED_EDGE('',*,*,#161,.F.);
#72=ORIENTED_EDGE('',*,*,#196,.T.);
#73=ORIENTED_EDGE('',*,*,#179,.F.);
#74=ORIENTED_EDGE('',*,*,#176,.T.);
#75=ORIENTED_EDGE('',*,*,#193,.T.);
#76=ORIENTED_EDGE('',*,*,#197,.F.);
#77=ORIENTED_EDGE('',*,*,#159,.F.);
#78=ORIENTED_EDGE('',*,*,#155,.F.);
#79=ORIENTED_EDGE('',*,*,#198,.T.);
#80=ORIENTED_EDGE('',*,*,#185,.T.);
#81=ORIENTED_EDGE('',*,*,#199,.F.);
#82=ORIENTED_EDGE('',*,*,#200,.F.);
#83=ORIENTED_EDGE('',*,*,#156,.T.);
#84=ORIENTED_EDGE('',*,*,#199,.T.);
#85=ORIENTED_EDGE('',*,*,#184,.F.);
#86=ORIENTED_EDGE('',*,*,#172,.T.);
#87=ORIENTED_EDGE('',*,*,#169,.F.);
#88=ORIENTED_EDGE('',*,*,#166,.F.);
#89=ORIENTED_EDGE('',*,*,#182,.F.);
#90=ORIENTED_EDGE('',*,*,#201,.F.);
#91=ORIENTED_EDGE('',*,*,#157,.T.);
#92=ORIENTED_EDGE('',*,*,#200,.T.);
#93=ORIENTED_EDGE('',*,*,#181,.F.);
#94=ORIENTED_EDGE('',*,*,#202,.F.);
#95=ORIENTED_EDGE('',*,*,#150,.T.);
#96=ORIENTED_EDGE('',*,*,#203,.T.);
#97=ORIENTED_EDGE('',*,*,#190,.T.);
#98=ORIENTED_EDGE('',*,*,#204,.T.);
#99=ORIENTED_EDGE('',*,*,#188,.F.);
#100=ORIENTED_EDGE('',*,*,#205,.F.);
#101=ORIENTED_EDGE('',*,*,#152,.F.);
#102=ORIENTED_EDGE('',*,*,#204,.F.);
#103=ORIENTED_EDGE('',*,*,#151,.F.);
#104=ORIENTED_EDGE('',*,*,#202,.T.);
#105=ORIENTED_EDGE('',*,*,#189,.T.);
#106=ORIENTED_EDGE('',*,*,#153,.T.);
#107=ORIENTED_EDGE('',*,*,#205,.T.);
#108=ORIENTED_EDGE('',*,*,#187,.F.);
#109=ORIENTED_EDGE('',*,*,#174,.F.);
#110=ORIENTED_EDGE('',*,*,#178,.T.);
#111=ORIENTED_EDGE('',*,*,#206,.F.);
#112=ORIENTED_EDGE('',*,*,#154,.F.);
#113=ORIENTED_EDGE('',*,*,#206,.T.);
#114=ORIENTED_EDGE('',*,*,#186,.T.);
#115=ORIENTED_EDGE('',*,*,#198,.F.);
#116=ORIENTED_EDGE('',*,*,#158,.F.);
#117=ORIENTED_EDGE('',*,*,#201,.T.);
#118=ORIENTED_EDGE('',*,*,#180,.T.);
#119=ORIENTED_EDGE('',*,*,#196,.F.);
#120=ORIENTED_EDGE('',*,*,#145,.F.);
#121=ORIENTED_EDGE('',*,*,#207,.T.);
#122=ORIENTED_EDGE('',*,*,#163,.T.);
#123=ORIENTED_EDGE('',*,*,#208,.F.);
#124=ORIENTED_EDGE('',*,*,#207,.F.);
#125=ORIENTED_EDGE('',*,*,#144,.T.);
#126=ORIENTED_EDGE('',*,*,#197,.T.);
#127=ORIENTED_EDGE('',*,*,#192,.F.);
#128=ORIENTED_EDGE('',*,*,#209,.F.);
#129=ORIENTED_EDGE('',*,*,#148,.T.);
#130=ORIENTED_EDGE('',*,*,#194,.T.);
#131=ORIENTED_EDGE('',*,*,#160,.F.);
#132=ORIENTED_EDGE('',*,*,#203,.F.);
#133=ORIENTED_EDGE('',*,*,#149,.F.);
#134=ORIENTED_EDGE('',*,*,#209,.T.);
#135=ORIENTED_EDGE('',*,*,#191,.F.);
#136=ORIENTED_EDGE('',*,*,#164,.T.);
#137=ORIENTED_EDGE('',*,*,#168,.T.);
#138=ORIENTED_EDGE('',*,*,#171,.F.);
#139=ORIENTED_EDGE('',*,*,#183,.F.);
#140=ORIENTED_EDGE('',*,*,#146,.F.);
#141=ORIENTED_EDGE('',*,*,#208,.T.);
#142=ORIENTED_EDGE('',*,*,#162,.T.);
#143=ORIENTED_EDGE('',*,*,#195,.F.);
#144=EDGE_CURVE('',#210,#211,#254,.T.);
#145=EDGE_CURVE('',#210,#212,#255,.T.);
#146=EDGE_CURVE('',#212,#213,#256,.T.);
#147=EDGE_CURVE('',#214,#213,#257,.T.);
#148=EDGE_CURVE('',#215,#214,#258,.T.);
#149=EDGE_CURVE('',#215,#216,#259,.T.);
#150=EDGE_CURVE('',#217,#216,#260,.T.);
#151=EDGE_CURVE('',#217,#218,#261,.T.);
#152=EDGE_CURVE('',#218,#219,#262,.T.);
#153=EDGE_CURVE('',#220,#219,#263,.T.);
#154=EDGE_CURVE('',#220,#221,#264,.T.);
#155=EDGE_CURVE('',#221,#222,#265,.T.);
#156=EDGE_CURVE('',#223,#222,#266,.T.);
#157=EDGE_CURVE('',#224,#223,#267,.T.);
#158=EDGE_CURVE('',#224,#225,#268,.T.);
#159=EDGE_CURVE('',#225,#211,#269,.T.);
#160=EDGE_CURVE('',#226,#227,#270,.T.);
#161=EDGE_CURVE('',#227,#228,#271,.T.);
#162=EDGE_CURVE('',#229,#228,#272,.T.);
#163=EDGE_CURVE('',#226,#229,#273,.T.);
#164=EDGE_CURVE('',#230,#231,#274,.T.);
#165=EDGE_CURVE('',#232,#230,#275,.T.);
#166=EDGE_CURVE('',#232,#233,#276,.T.);
#167=EDGE_CURVE('',#233,#231,#277,.T.);
#168=EDGE_CURVE('',#231,#234,#278,.T.);
#169=EDGE_CURVE('',#233,#235,#279,.T.);
#170=EDGE_CURVE('',#235,#234,#280,.T.);
#171=EDGE_CURVE('',#236,#234,#281,.T.);
#172=EDGE_CURVE('',#237,#235,#282,.T.);
#173=EDGE_CURVE('',#237,#236,#283,.T.);
#174=EDGE_CURVE('',#238,#239,#284,.T.);
#175=EDGE_CURVE('',#239,#240,#285,.T.);
#176=EDGE_CURVE('',#241,#240,#286,.T.);
#177=EDGE_CURVE('',#238,#241,#287,.T.);
#178=EDGE_CURVE('',#238,#242,#288,.T.);
#179=EDGE_CURVE('',#241,#243,#289,.T.);
#180=EDGE_CURVE('',#244,#243,#290,.T.);
#181=EDGE_CURVE('',#244,#245,#291,.T.);
#182=EDGE_CURVE('',#245,#232,#292,.T.);
#183=EDGE_CURVE('',#230,#236,#293,.T.);
#184=EDGE_CURVE('',#237,#246,#294,.T.);
#185=EDGE_CURVE('',#247,#246,#295,.T.);
#186=EDGE_CURVE('',#242,#247,#296,.T.);
#187=EDGE_CURVE('',#239,#248,#297,.T.);
#188=EDGE_CURVE('',#248,#249,#298,.T.);
#189=EDGE_CURVE('',#250,#249,#299,.T.);
#190=EDGE_CURVE('',#251,#250,#300,.T.);
#191=EDGE_CURVE('',#251,#252,#301,.T.);
#192=EDGE_CURVE('',#252,#253,#302,.T.);
#193=EDGE_CURVE('',#240,#253,#303,.T.);
#194=EDGE_CURVE('',#214,#227,#304,.T.);
#195=EDGE_CURVE('',#213,#228,#305,.T.);
#196=EDGE_CURVE('',#225,#243,#306,.T.);
#197=EDGE_CURVE('',#211,#253,#307,.T.);
#198=EDGE_CURVE('',#221,#247,#308,.T.);
#199=EDGE_CURVE('',#222,#246,#309,.T.);
#200=EDGE_CURVE('',#223,#245,#310,.T.);
#201=EDGE_CURVE('',#224,#244,#311,.T.);
#202=EDGE_CURVE('',#217,#250,#312,.T.);
#203=EDGE_CURVE('',#216,#251,#313,.T.);
#204=EDGE_CURVE('',#218,#249,#314,.T.);
#205=EDGE_CURVE('',#219,#248,#315,.T.);
#206=EDGE_CURVE('',#220,#242,#316,.T.);
#207=EDGE_CURVE('',#210,#226,#317,.T.);
#208=EDGE_CURVE('',#212,#229,#318,.T.);
#209=EDGE_CURVE('',#215,#252,#319,.T.);
#210=VERTEX_POINT('',#633);
#211=VERTEX_POINT('',#634);
#212=VERTEX_POINT('',#636);
#213=VERTEX_POINT('',#638);
#214=VERTEX_POINT('',#640);
#215=VERTEX_POINT('',#642);
#216=VERTEX_POINT('',#644);
#217=VERTEX_POINT('',#646);
#218=VERTEX_POINT('',#648);
#219=VERTEX_POINT('',#650);
#220=VERTEX_POINT('',#652);
#221=VERTEX_POINT('',#654);
#222=VERTEX_POINT('',#656);
#223=VERTEX_POINT('',#658);
#224=VERTEX_POINT('',#660);
#225=VERTEX_POINT('',#662);
#226=VERTEX_POINT('',#666);
#227=VERTEX_POINT('',#667);
#228=VERTEX_POINT('',#669);
#229=VERTEX_POINT('',#671);
#230=VERTEX_POINT('',#675);
#231=VERTEX_POINT('',#676);
#232=VERTEX_POINT('',#678);
#233=VERTEX_POINT('',#680);
#234=VERTEX_POINT('',#684);
#235=VERTEX_POINT('',#686);
#236=VERTEX_POINT('',#690);
#237=VERTEX_POINT('',#692);
#238=VERTEX_POINT('',#696);
#239=VERTEX_POINT('',#697);
#240=VERTEX_POINT('',#699);
#241=VERTEX_POINT('',#701);
#242=VERTEX_POINT('',#705);
#243=VERTEX_POINT('',#707);
#244=VERTEX_POINT('',#709);
#245=VERTEX_POINT('',#711);
#246=VERTEX_POINT('',#715);
#247=VERTEX_POINT('',#717);
#248=VERTEX_POINT('',#721);
#249=VERTEX_POINT('',#723);
#250=VERTEX_POINT('',#725);
#251=VERTEX_POINT('',#727);
#252=VERTEX_POINT('',#729);
#253=VERTEX_POINT('',#731);
#254=LINE('',#632,#320);
#255=LINE('',#635,#321);
#256=LINE('',#637,#322);
#257=LINE('',#639,#323);
#258=LINE('',#641,#324);
#259=LINE('',#643,#325);
#260=LINE('',#645,#326);
#261=LINE('',#647,#327);
#262=LINE('',#649,#328);
#263=LINE('',#651,#329);
#264=LINE('',#653,#330);
#265=LINE('',#655,#331);
#266=LINE('',#657,#332);
#267=LINE('',#659,#333);
#268=LINE('',#661,#334);
#269=LINE('',#663,#335);
#270=LINE('',#665,#336);
#271=LINE('',#668,#337);
#272=LINE('',#670,#338);
#273=LINE('',#672,#339);
#274=LINE('',#674,#340);
#275=LINE('',#677,#341);
#276=LINE('',#679,#342);
#277=LINE('',#681,#343);
#278=LINE('',#683,#344);
#279=LINE('',#685,#345);
#280=LINE('',#687,#346);
#281=LINE('',#689,#347);
#282=LINE('',#691,#348);
#283=LINE('',#693,#349);
#284=LINE('',#695,#350);
#285=LINE('',#698,#351);
#286=LINE('',#700,#352);
#287=LINE('',#702,#353);
#288=LINE('',#704,#354);
#289=LINE('',#706,#355);
#290=LINE('',#708,#356);
#291=LINE('',#710,#357);
#292=LINE('',#712,#358);
#293=LINE('',#713,#359);
#294=LINE('',#714,#360);
#295=LINE('',#716,#361);
#296=LINE('',#718,#362);
#297=LINE('',#720,#363);
#298=LINE('',#722,#364);
#299=LINE('',#724,#365);
#300=LINE('',#726,#366);
#301=LINE('',#728,#367);
#302=LINE('',#730,#368);
#303=LINE('',#732,#369);
#304=LINE('',#734,#370);
#305=LINE('',#735,#371);
#306=LINE('',#737,#372);
#307=LINE('',#738,#373);
#308=LINE('',#740,#374);
#309=LINE('',#741,#375);
#310=LINE('',#743,#376);
#311=LINE('',#745,#377);
#312=LINE('',#747,#378);
#313=LINE('',#748,#379);
#314=LINE('',#750,#380);
#315=LINE('',#751,#381);
#316=LINE('',#754,#382);
#317=LINE('',#758,#383);
#318=LINE('',#759,#384);
#319=LINE('',#761,#385);
#320=VECTOR('',#520,1.);
#321=VECTOR('',#521,1.);
#322=VECTOR('',#522,1.);
#323=VECTOR('',#523,1.);
#324=VECTOR('',#524,1.);
#325=VECTOR('',#525,1.);
#326=VECTOR('',#526,1.);
#327=VECTOR('',#527,1.);
#328=VECTOR('',#528,1.);
#329=VECTOR('',#529,1.);
#330=VECTOR('',#530,1.);
#331=VECTOR('',#531,1.);
#332=VECTOR('',#532,1.);
#333=VECTOR('',#533,1.);
#334=VECTOR('',#534,1.);
#335=VECTOR('',#535,1.);
#336=VECTOR('',#538,1.);
#337=VECTOR('',#539,1.);
#338=VECTOR('',#540,1.);
#339=VECTOR('',#541,1.);
#340=VECTOR('',#544,1.);
#341=VECTOR('',#545,1.);
#342=VECTOR('',#546,1.);
#343=VECTOR('',#547,1.);
#344=VECTOR('',#550,1.);
#345=VECTOR('',#551,1.);
#346=VECTOR('',#552,1.);
#347=VECTOR('',#555,1.);
#348=VECTOR('',#556,1.);
#349=VECTOR('',#557,1.);
#350=VECTOR('',#560,1.);
#351=VECTOR('',#561,1.);
#352=VECTOR('',#562,1.);
#353=VECTOR('',#563,1.);
#354=VECTOR('',#566,1.);
#355=VECTOR('',#567,1.);
#356=VECTOR('',#568,1.);
#357=VECTOR('',#569,1.);
#358=VECTOR('',#570,1.);
#359=VECTOR('',#571,1.);
#360=VECTOR('',#572,1.);
#361=VECTOR('',#573,1.);
#362=VECTOR('',#574,1.);
#363=VECTOR('',#577,1.);
#364=VECTOR('',#578,1.);
#365=VECTOR('',#579,1.);
#366=VECTOR('',#580,1.);
#367=VECTOR('',#581,1.);
#368=VECTOR('',#582,1.);
#369=VECTOR('',#583,1.);
#370=VECTOR('',#586,1.);
#371=VECTOR('',#587,1.);
#372=VECTOR('',#590,1.);
#373=VECTOR('',#591,1.);
#374=VECTOR('',#594,1.);
#375=VECTOR('',#595,1.);
#376=VECTOR('',#598,1.);
#377=VECTOR('',#601,1.);
#378=VECTOR('',#604,1.);
#379=VECTOR('',#605,1.);
#380=VECTOR('',#608,1.);
#381=VECTOR('',#609,1.);
#382=VECTOR('',#614,1.);
#383=VECTOR('',#621,1.);
#384=VECTOR('',#622,1.);
#385=VECTOR('',#625,1.);
#386=EDGE_LOOP('',(#12,#13,#14,#15,#16,#17,#18,#19,#20,#21,#22,#23,#24,
#25,#26,#27));
#387=EDGE_LOOP('',(#28,#29,#30,#31));
#388=EDGE_LOOP('',(#32,#33,#34,#35));
#389=EDGE_LOOP('',(#36,#37,#38,#39));
#390=EDGE_LOOP('',(#40,#41,#42,#43));
#391=EDGE_LOOP('',(#44,#45,#46,#47));
#392=EDGE_LOOP('',(#48,#49,#50,#51,#52,#53,#54,#55,#56,#57,#58,#59));
#393=EDGE_LOOP('',(#60,#61,#62,#63,#64,#65,#66,#67));
#394=EDGE_LOOP('',(#68,#69,#70,#71));
#395=EDGE_LOOP('',(#72,#73,#74,#75,#76,#77));
#396=EDGE_LOOP('',(#78,#79,#80,#81));
#397=EDGE_LOOP('',(#82,#83,#84,#85,#86,#87,#88,#89));
#398=EDGE_LOOP('',(#90,#91,#92,#93));
#399=EDGE_LOOP('',(#94,#95,#96,#97));
#400=EDGE_LOOP('',(#98,#99,#100,#101));
#401=EDGE_LOOP('',(#102,#103,#104,#105));
#402=EDGE_LOOP('',(#106,#107,#108,#109,#110,#111));
#403=EDGE_LOOP('',(#112,#113,#114,#115));
#404=EDGE_LOOP('',(#116,#117,#118,#119));
#405=EDGE_LOOP('',(#120,#121,#122,#123));
#406=EDGE_LOOP('',(#124,#125,#126,#127,#128,#129,#130,#131));
#407=EDGE_LOOP('',(#132,#133,#134,#135));
#408=EDGE_LOOP('',(#136,#137,#138,#139));
#409=EDGE_LOOP('',(#140,#141,#142,#143));
#410=FACE_BOUND('',#386,.T.);
#411=FACE_BOUND('',#387,.T.);
#412=FACE_BOUND('',#388,.T.);
#413=FACE_BOUND('',#389,.T.);
#414=FACE_BOUND('',#390,.T.);
#415=FACE_BOUND('',#391,.T.);
#416=FACE_BOUND('',#392,.T.);
#417=FACE_BOUND('',#393,.T.);
#418=FACE_BOUND('',#394,.T.);
#419=FACE_BOUND('',#395,.T.);
#420=FACE_BOUND('',#396,.T.);
#421=FACE_BOUND('',#397,.T.);
#422=FACE_BOUND('',#398,.T.);
#423=FACE_BOUND('',#399,.T.);
#424=FACE_BOUND('',#400,.T.);
#425=FACE_BOUND('',#401,.T.);
#426=FACE_BOUND('',#402,.T.);
#427=FACE_BOUND('',#403,.T.);
#428=FACE_BOUND('',#404,.T.);
#429=FACE_BOUND('',#405,.T.);
#430=FACE_BOUND('',#406,.T.);
#431=FACE_BOUND('',#407,.T.);
#432=FACE_BOUND('',#408,.T.);
#433=FACE_BOUND('',#409,.T.);
#434=PLANE('',#493);
#435=PLANE('',#494);
#436=PLANE('',#495);
#437=PLANE('',#496);
#438=PLANE('',#497);
#439=PLANE('',#498);
#440=PLANE('',#499);
#441=PLANE('',#500);
#442=PLANE('',#501);
#443=PLANE('',#502);
#444=PLANE('',#503);
#445=PLANE('',#504);
#446=PLANE('',#505);
#447=PLANE('',#506);
#448=PLANE('',#507);
#449=PLANE('',#508);
#450=PLANE('',#509);
#451=PLANE('',#510);
#452=PLANE('',#511);
#453=PLANE('',#512);
#454=PLANE('',#513);
#455=PLANE('',#514);
#456=PLANE('',#515);
#457=ADVANCED_FACE('',(#410),#434,.T.);
#458=ADVANCED_FACE('',(#411),#435,.F.);
#459=ADVANCED_FACE('',(#412),#436,.T.);
#460=ADVANCED_FACE('',(#413),#437,.T.);
#461=ADVANCED_FACE('',(#414),#438,.F.);
#462=ADVANCED_FACE('',(#415),#439,.T.);
#463=ADVANCED_FACE('',(#416),#440,.T.);
#464=ADVANCED_FACE('',(#417),#441,.F.);
#465=ADVANCED_FACE('',(#418),#442,.T.);
#466=ADVANCED_FACE('',(#419),#443,.T.);
#467=ADVANCED_FACE('',(#420),#444,.F.);
#468=ADVANCED_FACE('',(#421),#445,.T.);
#469=ADVANCED_FACE('',(#422),#446,.T.);
#470=ADVANCED_FACE('',(#423),#447,.T.);
#471=ADVANCED_FACE('',(#424),#448,.F.);
#472=ADVANCED_FACE('',(#425),#449,.T.);
#473=ADVANCED_FACE('',(#426),#450,.F.);
#474=ADVANCED_FACE('',(#427),#451,.F.);
#475=ADVANCED_FACE('',(#428),#452,.F.);
#476=ADVANCED_FACE('',(#429),#453,.F.);
#477=ADVANCED_FACE('',(#430),#454,.T.);
#478=ADVANCED_FACE('',(#431),#455,.F.);
#479=ADVANCED_FACE('',(#432,#433),#456,.F.);
#480=CLOSED_SHELL('',(#457,#458,#459,#460,#461,#462,#463,#464,#465,#466,
#467,#468,#469,#470,#471,#472,#473,#474,#475,#476,#477,#478,#479));
#481=STYLED_ITEM('',(#482),#489);
#482=PRESENTATION_STYLE_ASSIGNMENT((#483));
#483=SURFACE_STYLE_USAGE(.BOTH.,#484);
#484=SURFACE_SIDE_STYLE('',(#485));
#485=SURFACE_STYLE_FILL_AREA(#486);
#486=FILL_AREA_STYLE('',(#487));
#487=FILL_AREA_STYLE_COLOUR('',#488);
#488=COLOUR_RGB('',0.501960784313726,0.501960784313726,0.501960784313726);
#489=MANIFOLD_SOLID_BREP('Part 2',#480);
#490=SHAPE_DEFINITION_REPRESENTATION(#770,#491);
#491=SHAPE_REPRESENTATION('Part 2',(#492),#765);
#492=AXIS2_PLACEMENT_3D('',#630,#516,#517);
#493=AXIS2_PLACEMENT_3D('',#631,#518,#519);
#494=AXIS2_PLACEMENT_3D('',#664,#536,#537);
#495=AXIS2_PLACEMENT_3D('',#673,#542,#543);
#496=AXIS2_PLACEMENT_3D('',#682,#548,#549);
#497=AXIS2_PLACEMENT_3D('',#688,#553,#554);
#498=AXIS2_PLACEMENT_3D('',#694,#558,#559);
#499=AXIS2_PLACEMENT_3D('',#703,#564,#565);
#500=AXIS2_PLACEMENT_3D('',#719,#575,#576);
#501=AXIS2_PLACEMENT_3D('',#733,#584,#585);
#502=AXIS2_PLACEMENT_3D('',#736,#588,#589);
#503=AXIS2_PLACEMENT_3D('',#739,#592,#593);
#504=AXIS2_PLACEMENT_3D('',#742,#596,#597);
#505=AXIS2_PLACEMENT_3D('',#744,#599,#600);
#506=AXIS2_PLACEMENT_3D('',#746,#602,#603);
#507=AXIS2_PLACEMENT_3D('',#749,#606,#607);
#508=AXIS2_PLACEMENT_3D('',#752,#610,#611);
#509=AXIS2_PLACEMENT_3D('',#753,#612,#613);
#510=AXIS2_PLACEMENT_3D('',#755,#615,#616);
#511=AXIS2_PLACEMENT_3D('',#756,#617,#618);
#512=AXIS2_PLACEMENT_3D('',#757,#619,#620);
#513=AXIS2_PLACEMENT_3D('',#760,#623,#624);
#514=AXIS2_PLACEMENT_3D('',#762,#626,#627);
#515=AXIS2_PLACEMENT_3D('',#763,#628,#629);
#516=DIRECTION('',(0.,0.,1.));
#517=DIRECTION('',(1.,0.,0.));
#518=DIRECTION('',(0.,0.,1.));
#519=DIRECTION('',(1.,0.,0.));
#520=DIRECTION('',(-1.,-1.46081976924363E-16,0.));
#521=DIRECTION('',(0.,1.,0.));
#522=DIRECTION('',(-1.,-1.46081976924363E-16,0.));
#523=DIRECTION('',(0.,1.,0.));
#524=DIRECTION('',(-1.,-1.46081976924363E-16,0.));
#525=DIRECTION('',(-1.46081976924363E-16,1.,0.));
#526=DIRECTION('',(-1.,-1.46081976924363E-16,0.));
#527=DIRECTION('',(-1.46081976924363E-16,1.,0.));
#528=DIRECTION('',(-1.,-1.46081976924363E-16,0.));
#529=DIRECTION('',(1.46081976924363E-16,-1.,0.));
#530=DIRECTION('',(-1.,-1.46081976924363E-16,0.));
#531=DIRECTION('',(0.,1.,0.));
#532=DIRECTION('',(-1.,-1.46081976924363E-16,0.));
#533=DIRECTION('',(0.,1.,0.));
#534=DIRECTION('',(-1.,-1.46081976924363E-16,0.));
#535=DIRECTION('',(1.46081976924363E-16,-1.,0.));
#536=DIRECTION('',(0.,0.,1.));
#537=DIRECTION('',(1.,0.,0.));
#538=DIRECTION('',(-1.,-1.46081976924363E-16,0.));
#539=DIRECTION('',(0.,1.,0.));
#540=DIRECTION('',(-1.,-1.46081976924363E-16,0.));
#541=DIRECTION('',(0.,1.,0.));
#542=DIRECTION('',(-1.,-1.46081976924363E-16,0.));
#543=DIRECTION('',(1.46081976924363E-16,-1.,0.));
#544=DIRECTION('',(0.,0.,1.));
#545=DIRECTION('',(-1.46081976924363E-16,1.,0.));
#546=DIRECTION('',(0.,0.,1.));
#547=DIRECTION('',(-1.46081976924363E-16,1.,0.));
#548=DIRECTION('',(0.,0.,-1.));
#549=DIRECTION('',(-1.,0.,0.));
#550=DIRECTION('',(-1.,-1.46081976924363E-16,0.));
#551=DIRECTION('',(-1.,-1.46081976924363E-16,0.));
#552=DIRECTION('',(-1.46081976924363E-16,1.,0.));
#553=DIRECTION('',(-1.,-1.46081976924363E-16,0.));
#554=DIRECTION('',(1.46081976924363E-16,-1.,0.));
#555=DIRECTION('',(0.,0.,1.));
#556=DIRECTION('',(0.,0.,1.));
#557=DIRECTION('',(-1.46081976924363E-16,1.,0.));
#558=DIRECTION('',(1.46081976924363E-16,-1.,0.));
#559=DIRECTION('',(1.,1.46081976924363E-16,0.));
#560=DIRECTION('',(-2.39272203583008E-16,-3.49533565224544E-32,-1.));
#561=DIRECTION('',(1.,1.46081976924363E-16,0.));
#562=DIRECTION('',(-2.39272203583008E-16,-3.49533565224544E-32,-1.));
#563=DIRECTION('',(1.,1.46081976924363E-16,0.));
#564=DIRECTION('',(0.,0.,1.));
#565=DIRECTION('',(1.,0.,0.));
#566=DIRECTION('',(1.46081976924363E-16,-1.,0.));
#567=DIRECTION('',(1.46081976924363E-16,-1.,0.));
#568=DIRECTION('',(-1.,-1.46081976924363E-16,0.));
#569=DIRECTION('',(0.,1.,0.));
#570=DIRECTION('',(-1.,-1.46081976924363E-16,0.));
#571=DIRECTION('',(-1.,-1.46081976924363E-16,0.));
#572=DIRECTION('',(-1.,-1.46081976924363E-16,0.));
#573=DIRECTION('',(0.,1.,0.));
#574=DIRECTION('',(-1.,-1.46081976924363E-16,0.));
#575=DIRECTION('',(0.,0.,-1.));
#576=DIRECTION('',(-1.,0.,0.));
#577=DIRECTION('',(1.46081976924363E-16,-1.,0.));
#578=DIRECTION('',(1.,1.46081976924363E-16,0.));
#579=DIRECTION('',(-1.46081976924363E-16,1.,0.));
#580=DIRECTION('',(1.,1.46081976924363E-16,0.));
#581=DIRECTION('',(1.46081976924363E-16,-1.,0.));
#582=DIRECTION('',(1.,1.46081976924363E-16,0.));
#583=DIRECTION('',(1.46081976924363E-16,-1.,0.));
#584=DIRECTION('',(-1.,0.,0.));
#585=DIRECTION('',(0.,0.,1.));
#586=DIRECTION('',(0.,0.,-1.));
#587=DIRECTION('',(0.,0.,-1.));
#588=DIRECTION('',(-1.,-1.46081976924363E-16,2.39272203583008E-16));
#589=DIRECTION('',(2.39272203583008E-16,0.,1.));
#590=DIRECTION('',(-2.39272203583008E-16,-3.49533565224544E-32,-1.));
#591=DIRECTION('',(-2.39272203583008E-16,-3.49533565224544E-32,-1.));
#592=DIRECTION('',(-1.,0.,0.));
#593=DIRECTION('',(0.,0.,1.));
#594=DIRECTION('',(0.,0.,-1.));
#595=DIRECTION('',(0.,0.,-1.));
#596=DIRECTION('',(1.46081976924363E-16,-1.,0.));
#597=DIRECTION('',(1.,1.46081976924363E-16,0.));
#598=DIRECTION('',(0.,0.,-1.));
#599=DIRECTION('',(-1.,0.,0.));
#600=DIRECTION('',(0.,0.,1.));
#601=DIRECTION('',(0.,0.,-1.));
#602=DIRECTION('',(1.46081976924363E-16,-1.,0.));
#603=DIRECTION('',(1.,1.46081976924363E-16,0.));
#604=DIRECTION('',(0.,0.,-1.));
#605=DIRECTION('',(-2.39272203583008E-16,-3.49533565224544E-32,-1.));
#606=DIRECTION('',(1.46081976924363E-16,-1.,0.));
#607=DIRECTION('',(1.,1.46081976924363E-16,0.));
#608=DIRECTION('',(0.,0.,-1.));
#609=DIRECTION('',(-2.39272203583008E-16,-3.49533565224544E-32,-1.));
#610=DIRECTION('',(1.,1.46081976924363E-16,0.));
#611=DIRECTION('',(-1.46081976924363E-16,1.,0.));
#612=DIRECTION('',(-1.,-1.46081976924363E-16,2.39272203583008E-16));
#613=DIRECTION('',(2.39272203583008E-16,0.,1.));
#614=DIRECTION('',(-2.39272203583008E-16,-3.49533565224544E-32,-1.));
#615=DIRECTION('',(1.46081976924363E-16,-1.,0.));
#616=DIRECTION('',(1.,1.46081976924363E-16,0.));
#617=DIRECTION('',(1.46081976924363E-16,-1.,0.));
#618=DIRECTION('',(1.,1.46081976924363E-16,0.));
#619=DIRECTION('',(-1.,0.,0.));
#620=DIRECTION('',(0.,0.,1.));
#621=DIRECTION('',(0.,0.,-1.));
#622=DIRECTION('',(0.,0.,-1.));
#623=DIRECTION('',(1.46081976924363E-16,-1.,0.));
#624=DIRECTION('',(1.,1.46081976924363E-16,0.));
#625=DIRECTION('',(-2.39272203583008E-16,-3.49533565224544E-32,-1.));
#626=DIRECTION('',(-1.,-1.46081976924363E-16,2.39272203583008E-16));
#627=DIRECTION('',(2.39272203583008E-16,0.,1.));
#628=DIRECTION('',(1.46081976924363E-16,-1.,0.));
#629=DIRECTION('',(1.,1.46081976924363E-16,0.));
#630=CARTESIAN_POINT('',(0.,0.,0.));
#631=CARTESIAN_POINT('',(0.,0.,0.03));
#632=CARTESIAN_POINT('',(6.93889390390723E-18,-0.037,0.03));
#633=CARTESIAN_POINT('',(0.0475,-0.037,0.03));
#634=CARTESIAN_POINT('',(0.02175,-0.037,0.03));
#635=CARTESIAN_POINT('',(0.0475,0.,0.03));
#636=CARTESIAN_POINT('',(0.0475,0.037,0.03));
#637=CARTESIAN_POINT('',(0.,0.037,0.03));
#638=CARTESIAN_POINT('',(-0.0475,0.037,0.03));
#639=CARTESIAN_POINT('',(-0.0475,-1.38777878078145E-17,0.03));
#640=CARTESIAN_POINT('',(-0.0475,-0.037,0.03));
#641=CARTESIAN_POINT('',(6.93889390390723E-18,-0.037,0.03));
#642=CARTESIAN_POINT('',(-0.02175,-0.037,0.03));
#643=CARTESIAN_POINT('',(-0.02175,-0.034,0.03));
#644=CARTESIAN_POINT('',(-0.02175,-0.0365,0.03));
#645=CARTESIAN_POINT('',(6.86585291544505E-18,-0.0365,0.03));
#646=CARTESIAN_POINT('',(0.01725,-0.0365,0.03));
#647=CARTESIAN_POINT('',(0.01725,-0.0365,0.03));
#648=CARTESIAN_POINT('',(0.01725,-0.0355,0.03));
#649=CARTESIAN_POINT('',(5.18591018081488E-18,-0.0355,0.03));
#650=CARTESIAN_POINT('',(-0.02175,-0.0355,0.03));
#651=CARTESIAN_POINT('',(-0.02175,-0.034,0.03));
#652=CARTESIAN_POINT('',(-0.02175,-0.035,0.03));
#653=CARTESIAN_POINT('',(6.6467299500585E-18,-0.035,0.03));
#654=CARTESIAN_POINT('',(-0.0455,-0.035,0.03));
#655=CARTESIAN_POINT('',(-0.0455,-1.38777878078145E-17,0.03));
#656=CARTESIAN_POINT('',(-0.0455,0.035,0.03));
#657=CARTESIAN_POINT('',(2.92163953848725E-19,0.035,0.03));
#658=CARTESIAN_POINT('',(0.0455,0.035,0.03));
#659=CARTESIAN_POINT('',(0.0455,0.,0.03));
#660=CARTESIAN_POINT('',(0.0455,-0.035,0.03));
#661=CARTESIAN_POINT('',(6.6467299500585E-18,-0.035,0.03));
#662=CARTESIAN_POINT('',(0.02175,-0.035,0.03));
#663=CARTESIAN_POINT('',(0.02175,-0.034,0.03));
#664=CARTESIAN_POINT('',(0.,0.,0.));
#665=CARTESIAN_POINT('',(6.93889390390723E-18,-0.037,0.));
#666=CARTESIAN_POINT('',(0.0475,-0.037,0.));
#667=CARTESIAN_POINT('',(-0.0475,-0.037,0.));
#668=CARTESIAN_POINT('',(-0.0475,-1.38777878078145E-17,0.));
#669=CARTESIAN_POINT('',(-0.0475,0.037,0.));
#670=CARTESIAN_POINT('',(0.,0.037,0.));
#671=CARTESIAN_POINT('',(0.0475,0.037,0.));
#672=CARTESIAN_POINT('',(0.0475,0.,0.));
#673=CARTESIAN_POINT('',(0.045005,0.035,0.00475));
#674=CARTESIAN_POINT('',(0.045005,0.037,0.00475));
#675=CARTESIAN_POINT('',(0.045005,0.037,0.002));
#676=CARTESIAN_POINT('',(0.045005,0.037,0.0075));
#677=CARTESIAN_POINT('',(0.045005,0.035,0.002));
#678=CARTESIAN_POINT('',(0.045005,0.035,0.002));
#679=CARTESIAN_POINT('',(0.045005,0.035,0.00475));
#680=CARTESIAN_POINT('',(0.045005,0.035,0.0075));
#681=CARTESIAN_POINT('',(0.045005,0.035,0.0075));
#682=CARTESIAN_POINT('',(-6.6467299500585E-18,0.035,0.0075));
#683=CARTESIAN_POINT('',(-6.93889390390723E-18,0.037,0.0075));
#684=CARTESIAN_POINT('',(-0.045005,0.037,0.0075));
#685=CARTESIAN_POINT('',(-6.6467299500585E-18,0.035,0.0075));
#686=CARTESIAN_POINT('',(-0.045005,0.035,0.0075));
#687=CARTESIAN_POINT('',(-0.045005,0.035,0.0075));
#688=CARTESIAN_POINT('',(-0.045005,0.035,0.00475));
#689=CARTESIAN_POINT('',(-0.045005,0.037,0.00475));
#690=CARTESIAN_POINT('',(-0.045005,0.037,0.002));
#691=CARTESIAN_POINT('',(-0.045005,0.035,0.00475));
#692=CARTESIAN_POINT('',(-0.045005,0.035,0.002));
#693=CARTESIAN_POINT('',(-0.045005,0.035,0.002));
#694=CARTESIAN_POINT('',(4.96678721542833E-18,-0.034,0.015));
#695=CARTESIAN_POINT('',(-0.02175,-0.034,0.0155));
#696=CARTESIAN_POINT('',(-0.02175,-0.034,0.002));
#697=CARTESIAN_POINT('',(-0.02175,-0.034,0.001));
#698=CARTESIAN_POINT('',(3.03120102118052E-18,-0.034,0.001));
#699=CARTESIAN_POINT('',(0.02175,-0.034,0.001));
#700=CARTESIAN_POINT('',(0.02175,-0.034,0.0155));
#701=CARTESIAN_POINT('',(0.02175,-0.034,0.002));
#702=CARTESIAN_POINT('',(4.96678721542833E-18,-0.034,0.002));
#703=CARTESIAN_POINT('',(0.,0.,0.002));
#704=CARTESIAN_POINT('',(-0.02175,-3.17728299810489E-18,0.002));
#705=CARTESIAN_POINT('',(-0.02175,-0.035,0.002));
#706=CARTESIAN_POINT('',(0.02175,3.17728299810489E-18,0.002));
#707=CARTESIAN_POINT('',(0.02175,-0.035,0.002));
#708=CARTESIAN_POINT('',(6.6467299500585E-18,-0.035,0.002));
#709=CARTESIAN_POINT('',(0.0455,-0.035,0.002));
#710=CARTESIAN_POINT('',(0.0455,0.,0.002));
#711=CARTESIAN_POINT('',(0.0455,0.035,0.002));
#712=CARTESIAN_POINT('',(2.92163953848725E-19,0.035,0.002));
#713=CARTESIAN_POINT('',(-6.93889390390723E-18,0.037,0.002));
#714=CARTESIAN_POINT('',(2.92163953848725E-19,0.035,0.002));
#715=CARTESIAN_POINT('',(-0.0455,0.035,0.002));
#716=CARTESIAN_POINT('',(-0.0455,-1.38777878078145E-17,0.002));
#717=CARTESIAN_POINT('',(-0.0455,-0.035,0.002));
#718=CARTESIAN_POINT('',(6.6467299500585E-18,-0.035,0.002));
#719=CARTESIAN_POINT('',(3.03120102118052E-18,-0.034,0.001));
#720=CARTESIAN_POINT('',(-0.02175,-0.034,0.001));
#721=CARTESIAN_POINT('',(-0.02175,-0.0355,0.001));
#722=CARTESIAN_POINT('',(3.25032398656707E-18,-0.0355,0.001));
#723=CARTESIAN_POINT('',(0.01725,-0.0355,0.001));
#724=CARTESIAN_POINT('',(0.01725,-0.0365,0.001));
#725=CARTESIAN_POINT('',(0.01725,-0.0365,0.001));
#726=CARTESIAN_POINT('',(3.39640596349143E-18,-0.0365,0.001));
#727=CARTESIAN_POINT('',(-0.02175,-0.0365,0.001));
#728=CARTESIAN_POINT('',(-0.02175,-0.034,0.001));
#729=CARTESIAN_POINT('',(-0.02175,-0.037,0.001));
#730=CARTESIAN_POINT('',(3.46944695195361E-18,-0.037,0.001));
#731=CARTESIAN_POINT('',(0.02175,-0.037,0.001));
#732=CARTESIAN_POINT('',(0.02175,-0.034,0.001));
#733=CARTESIAN_POINT('',(-0.0475,-1.38777878078145E-17,0.03));
#734=CARTESIAN_POINT('',(-0.0475,-0.037,0.03));
#735=CARTESIAN_POINT('',(-0.0475,0.037,0.03));
#736=CARTESIAN_POINT('',(0.02175,-0.034,0.0155));
#737=CARTESIAN_POINT('',(0.02175,-0.035,0.03));
#738=CARTESIAN_POINT('',(0.02175,-0.037,0.0155));
#739=CARTESIAN_POINT('',(-0.0455,-1.38777878078145E-17,0.03));
#740=CARTESIAN_POINT('',(-0.0455,-0.035,0.03));
#741=CARTESIAN_POINT('',(-0.0455,0.035,0.03));
#742=CARTESIAN_POINT('',(2.92163953848725E-19,0.035,0.03));
#743=CARTESIAN_POINT('',(0.0455,0.035,0.03));
#744=CARTESIAN_POINT('',(0.0455,0.,0.03));
#745=CARTESIAN_POINT('',(0.0455,-0.035,0.03));
#746=CARTESIAN_POINT('',(5.33199215773924E-18,-0.0365,0.0155));
#747=CARTESIAN_POINT('',(0.01725,-0.0365,0.0155));
#748=CARTESIAN_POINT('',(-0.02175,-0.0365,0.0155));
#749=CARTESIAN_POINT('',(5.18591018081488E-18,-0.0355,0.0155));
#750=CARTESIAN_POINT('',(0.01725,-0.0355,0.0155));
#751=CARTESIAN_POINT('',(-0.02175,-0.0355,0.0155));
#752=CARTESIAN_POINT('',(0.01725,-0.0365,0.0155));
#753=CARTESIAN_POINT('',(-0.02175,-0.034,0.0155));
#754=CARTESIAN_POINT('',(-0.02175,-0.035,0.03));
#755=CARTESIAN_POINT('',(6.6467299500585E-18,-0.035,0.03));
#756=CARTESIAN_POINT('',(6.6467299500585E-18,-0.035,0.03));
#757=CARTESIAN_POINT('',(0.0475,0.,0.03));
#758=CARTESIAN_POINT('',(0.0475,-0.037,0.03));
#759=CARTESIAN_POINT('',(0.0475,0.037,0.03));
#760=CARTESIAN_POINT('',(6.93889390390723E-18,-0.037,0.03));
#761=CARTESIAN_POINT('',(-0.02175,-0.037,0.0155));
#762=CARTESIAN_POINT('',(-0.02175,-0.034,0.0155));
#763=CARTESIAN_POINT('',(0.,0.037,0.03));
#764=MECHANICAL_DESIGN_GEOMETRIC_PRESENTATION_REPRESENTATION('',(#481),
#765);
#765=(
GEOMETRIC_REPRESENTATION_CONTEXT(3)
GLOBAL_UNCERTAINTY_ASSIGNED_CONTEXT((#766))
GLOBAL_UNIT_ASSIGNED_CONTEXT((#769,#768,#767))
REPRESENTATION_CONTEXT('Part 2','TOP_LEVEL_ASSEMBLY_PART')
);
#766=UNCERTAINTY_MEASURE_WITH_UNIT(LENGTH_MEASURE(1.E-8),#769,
'DISTANCE_ACCURACY_VALUE','Maximum Tolerance applied to model');
#767=(
NAMED_UNIT(*)
SI_UNIT($,.STERADIAN.)
SOLID_ANGLE_UNIT()
);
#768=(
NAMED_UNIT(*)
PLANE_ANGLE_UNIT()
SI_UNIT($,.RADIAN.)
);
#769=(
LENGTH_UNIT()
NAMED_UNIT(*)
SI_UNIT($,.METRE.)
);
#770=PRODUCT_DEFINITION_SHAPE('','',#771);
#771=PRODUCT_DEFINITION('','',#773,#772);
#772=PRODUCT_DEFINITION_CONTEXT('',#779,'design');
#773=PRODUCT_DEFINITION_FORMATION_WITH_SPECIFIED_SOURCE('','',#775,
 .NOT_KNOWN.);
#774=PRODUCT_RELATED_PRODUCT_CATEGORY('','',(#775));
#775=PRODUCT('Part 2','Part 2','Part 2',(#777));
#776=PRODUCT_CATEGORY('','');
#777=PRODUCT_CONTEXT('',#779,'mechanical');
#778=APPLICATION_PROTOCOL_DEFINITION('international standard',
'ap242_managed_model_based_3d_engineering',2020,#779);
#779=APPLICATION_CONTEXT('managed model based 3d engineering');
ENDSEC;
END-ISO-10303-21;
